<svg width="1184" height="664" viewBox="0 0 1184 664" fill="none" xmlns="http://www.w3.org/2000/svg">
<g clip-path="url(#clip0)">
<rect width="1184" height="664" rx="16" fill="#3B38F1"/>
<path opacity="0.15" d="M444.713 477.305C312.919 361.24 131.291 526.842 -12.6518 434.99C-87.5456 387.199 -126.753 217.832 -148.567 167.779C-160.519 140.353 -178.77 115.669 -208.414 96.4709C-238.058 77.2725 -319 85.8922 -319 85.8922V-34H1230V714.543H883.381C883.381 714.543 640.316 724.142 561.212 655.38C492.175 595.37 512.179 536.72 444.713 477.305Z" fill="white"/>
<path d="M65.44 93.04C65.44 101.968 71.104 106.672 79.36 106.672C88.048 106.672 92.704 102.208 92.704 94.192V88.624H78.208V94.192H86.368V94.528C86.368 98.56 84.4 101.008 79.36 101.008C74.416 101.008 71.776 97.936 71.776 93.328V85.072C71.776 80.848 74.608 77.392 79.36 77.392C83.968 77.392 86.368 80.08 86.368 84.112V84.592H92.704V84.208C92.704 76.336 87.856 71.728 79.36 71.728C70.864 71.728 65.44 77.008 65.44 85.36V93.04ZM95.3886 93.904C95.3886 101.296 100.525 106.672 107.629 106.672C114.013 106.672 116.797 103.312 118.429 100.816L113.485 97.936C112.669 99.616 110.893 101.488 107.533 101.488C104.077 101.488 101.821 99.04 101.581 95.872H118.909V93.52C118.909 86.368 114.253 81.52 107.341 81.52C100.333 81.52 95.3886 86.704 95.3886 93.904ZM101.629 91.648C102.109 88.72 103.885 86.704 107.293 86.704C110.413 86.704 112.333 88.624 112.765 91.648H101.629ZM119.926 82.192V87.376H125.974V101.392C125.974 104.08 127.99 106 130.678 106H137.206V100.816H133.366C132.502 100.816 132.022 100.336 132.022 99.376V87.376H138.55V82.192H132.022V74.8H125.974V82.192H119.926ZM154.268 75.28C154.268 77.728 156.14 79.408 158.54 79.408C160.94 79.408 162.812 77.728 162.812 75.28C162.812 72.832 160.94 71.152 158.54 71.152C156.14 71.152 154.268 72.832 154.268 75.28ZM161.564 82.192H155.516V106H161.564V82.192ZM166.954 82.192V106H173.002V93.712C173.002 89.488 175.066 87.088 178.954 87.088C182.41 87.088 184.33 89.056 184.33 92.368V106H190.378V91.792C190.378 85.6 186.394 81.808 181.114 81.808C176.746 81.808 174.538 83.824 173.578 86.032H172.906V82.192H166.954ZM205.895 82.192V87.376H211.943V101.392C211.943 104.08 213.959 106 216.647 106H223.175V100.816H219.335C218.471 100.816 217.991 100.336 217.991 99.376V87.376H224.519V82.192H217.991V74.8H211.943V82.192H205.895ZM226.873 94.096C226.873 101.584 232.345 106.672 239.353 106.672C246.361 106.672 251.833 101.584 251.833 94.096C251.833 86.608 246.361 81.52 239.353 81.52C232.345 81.52 226.873 86.608 226.873 94.096ZM232.921 94.096C232.921 89.776 235.513 86.896 239.353 86.896C243.193 86.896 245.785 89.776 245.785 94.096C245.785 98.416 243.193 101.296 239.353 101.296C235.513 101.296 232.921 98.416 232.921 94.096ZM278.918 106V82.192H272.87V94.48C272.87 98.704 270.806 101.104 266.918 101.104C263.462 101.104 261.542 99.136 261.542 95.824V82.192H255.494V96.4C255.494 102.592 259.478 106.384 264.758 106.384C269.126 106.384 271.334 104.368 272.294 102.16H272.966V106H278.918ZM282.842 94.096C282.842 101.488 288.314 106.672 295.226 106.672C301.898 106.672 306.074 102.976 307.226 97.552L301.274 96.064C300.65 99.184 298.97 101.296 295.322 101.296C291.434 101.296 288.89 98.416 288.89 94.096C288.89 89.776 291.674 86.896 295.322 86.896C298.97 86.896 300.842 89.296 301.274 92.176L307.226 90.64C305.978 85.216 301.85 81.52 295.226 81.52C288.314 81.52 282.842 86.704 282.842 94.096ZM310.954 72.4V106H317.002V93.712C317.002 89.488 319.066 87.088 322.954 87.088C326.41 87.088 328.33 89.056 328.33 92.368V106H334.378V91.792C334.378 85.6 330.394 81.808 325.114 81.808C320.746 81.808 318.538 83.824 317.578 86.032H317.002V72.4H310.954Z" fill="white"/>
<path d="M64.032 142.6L71.904 157.064V165H75.616V157.064L83.488 142.6H79.264L74.016 152.552H73.536L68.256 142.6H64.032ZM81.9928 157.096C81.9928 162.024 85.5448 165.448 90.1848 165.448C94.8248 165.448 98.3768 162.024 98.3768 157.096C98.3768 152.168 94.8248 148.776 90.1848 148.776C85.5448 148.776 81.9928 152.168 81.9928 157.096ZM85.5128 157.096C85.5128 153.928 87.4008 151.944 90.1848 151.944C92.9688 151.944 94.8568 153.928 94.8568 157.096C94.8568 160.264 92.9688 162.28 90.1848 162.28C87.4008 162.28 85.5128 160.264 85.5128 157.096ZM116.43 165V149.224H112.91V157.416C112.91 160.456 111.31 162.184 108.558 162.184C106.126 162.184 104.75 160.808 104.75 158.344V149.224H101.23V158.664C101.23 162.888 103.982 165.256 107.374 165.256C110.382 165.256 111.854 163.848 112.526 162.376H112.974V165H116.43ZM129.579 142.6V165H133.099V156.808C133.099 153.768 134.699 152.04 137.451 152.04C139.883 152.04 141.259 153.384 141.259 155.848V165H144.779V155.528C144.779 151.304 142.059 148.968 138.635 148.968C135.627 148.968 134.187 150.344 133.483 151.816H133.099V142.6H129.579ZM148.098 153.096L151.042 154.76C151.906 153 153.314 151.848 155.65 151.848C158.018 151.848 159.33 153.064 159.33 154.888V155.304L153.41 155.912C149.858 156.264 147.778 157.896 147.778 160.584C147.778 163.528 150.114 165.448 153.666 165.448C156.962 165.448 158.338 163.88 158.914 162.632H159.362V165H162.818V154.984C162.818 151.24 160.066 148.776 155.778 148.776C151.938 148.776 149.602 150.696 148.098 153.096ZM151.426 160.424C151.426 159.144 152.514 158.6 154.178 158.44L159.33 157.896V158.152C159.33 160.584 157.666 162.536 154.402 162.536C152.482 162.536 151.426 161.704 151.426 160.424ZM164.258 149.224L169.922 165H175.042L180.706 149.224H176.898L172.674 161.8H172.29L168.066 149.224H164.258ZM181.774 156.968C181.774 161.8 185.166 165.448 189.966 165.448C193.966 165.448 195.886 163.272 197.038 161.48L194.126 159.816C193.422 161.192 192.174 162.408 189.902 162.408C187.342 162.408 185.582 160.712 185.422 158.248H197.358V156.712C197.358 152.04 194.286 148.744 189.678 148.744C185.07 148.744 181.774 152.264 181.774 156.968ZM185.422 155.624C185.71 153.256 187.15 151.784 189.646 151.784C192.078 151.784 193.582 153.256 193.742 155.624H185.422ZM224.847 171.4V149.224H221.391V151.56H220.943C220.111 150.184 218.671 148.776 215.727 148.776C211.695 148.776 208.399 152.232 208.399 157.096C208.399 161.96 211.695 165.448 215.727 165.448C218.671 165.448 220.111 164.04 220.943 162.632H221.327V171.4H224.847ZM216.655 162.312C213.935 162.312 211.919 160.424 211.919 157.096C211.919 153.768 213.935 151.912 216.655 151.912C219.439 151.912 221.327 153.864 221.327 157.096C221.327 160.328 219.439 162.312 216.655 162.312ZM243.899 165V149.224H240.379V157.416C240.379 160.456 238.779 162.184 236.027 162.184C233.595 162.184 232.219 160.808 232.219 158.344V149.224H228.699V158.664C228.699 162.888 231.451 165.256 234.843 165.256C237.851 165.256 239.323 163.848 239.995 162.376H240.443V165H243.899ZM246.93 156.968C246.93 161.8 250.322 165.448 255.122 165.448C259.122 165.448 261.042 163.272 262.194 161.48L259.282 159.816C258.578 161.192 257.33 162.408 255.058 162.408C252.498 162.408 250.738 160.712 250.578 158.248H262.514V156.712C262.514 152.04 259.442 148.744 254.834 148.744C250.226 148.744 246.93 152.264 246.93 156.968ZM250.578 155.624C250.866 153.256 252.306 151.784 254.802 151.784C257.234 151.784 258.738 153.256 258.898 155.624H250.578ZM264.944 153.544C264.944 156.52 267.12 157.8 271.12 158.312L272.048 158.44C273.744 158.664 275.568 158.856 275.568 160.264C275.568 161.64 274.032 162.504 272.08 162.504C269.776 162.504 267.696 161.224 266.704 159.016L263.76 160.744C265.104 163.016 267.568 165.448 271.984 165.448C276.112 165.448 279.024 163.272 279.024 160.168C279.024 157.064 276.688 155.976 272.368 155.432L271.44 155.304C269.744 155.08 268.4 154.856 268.4 153.512C268.4 152.36 269.456 151.656 271.088 151.656C273.072 151.656 274.832 152.712 276.304 154.568L278.864 152.616C276.56 150.12 274.352 148.776 271.12 148.776C267.696 148.776 264.944 150.6 264.944 153.544ZM280.194 149.224V152.264H284.386V162.12C284.386 163.816 285.602 165 287.266 165H291.49V161.96H288.77C288.194 161.96 287.906 161.672 287.906 161.032V152.264H292.386V149.224H287.906V144.04H284.386V149.224H280.194ZM294.401 144.52C294.401 145.992 295.585 147.08 297.057 147.08C298.529 147.08 299.681 145.992 299.681 144.52C299.681 143.016 298.529 141.96 297.057 141.96C295.585 141.96 294.401 143.016 294.401 144.52ZM298.817 149.224H295.297V165H298.817V149.224ZM301.868 157.096C301.868 162.024 305.42 165.448 310.06 165.448C314.7 165.448 318.252 162.024 318.252 157.096C318.252 152.168 314.7 148.776 310.06 148.776C305.42 148.776 301.868 152.168 301.868 157.096ZM305.388 157.096C305.388 153.928 307.276 151.944 310.06 151.944C312.844 151.944 314.732 153.928 314.732 157.096C314.732 160.264 312.844 162.28 310.06 162.28C307.276 162.28 305.388 160.264 305.388 157.096ZM321.297 149.224V165H324.817V156.808C324.817 153.768 326.417 152.04 329.169 152.04C331.601 152.04 332.977 153.384 332.977 155.848V165H336.497V155.528C336.497 151.304 333.777 148.968 330.353 148.968C327.345 148.968 325.905 150.344 325.201 151.816H324.753V149.224H321.297ZM339.913 153.544C339.913 156.52 342.089 157.8 346.089 158.312L347.017 158.44C348.713 158.664 350.537 158.856 350.537 160.264C350.537 161.64 349.001 162.504 347.049 162.504C344.745 162.504 342.665 161.224 341.673 159.016L338.729 160.744C340.073 163.016 342.536 165.448 346.953 165.448C351.081 165.448 353.993 163.272 353.993 160.168C353.993 157.064 351.657 155.976 347.337 155.432L346.409 155.304C344.713 155.08 343.369 154.856 343.369 153.512C343.369 152.36 344.425 151.656 346.057 151.656C348.041 151.656 349.801 152.712 351.273 154.568L353.833 152.616C351.529 150.12 349.321 148.776 346.089 148.776C342.665 148.776 339.913 150.6 339.913 153.544ZM365.024 157.096C365.024 162.024 368.576 165.448 373.216 165.448C377.856 165.448 381.408 162.024 381.408 157.096C381.408 152.168 377.856 148.776 373.216 148.776C368.576 148.776 365.024 152.168 365.024 157.096ZM368.544 157.096C368.544 153.928 370.432 151.944 373.216 151.944C376 151.944 377.888 153.928 377.888 157.096C377.888 160.264 376 162.28 373.216 162.28C370.432 162.28 368.544 160.264 368.544 157.096ZM387.878 149.224H384.454V165H387.974V155.944C387.974 153.64 389.318 152.456 391.462 152.456H394.022V149.16H392.358C390.214 149.16 388.902 149.928 388.326 151.656H387.878V149.224ZM77.536 183.224L73.056 194.872H72.672L68.16 183.224H64.352L71.008 199.64L68.544 205.4H72.352L81.344 183.224H77.536ZM82.399 191.096C82.399 196.024 85.951 199.448 90.591 199.448C95.231 199.448 98.783 196.024 98.783 191.096C98.783 186.168 95.231 182.776 90.591 182.776C85.951 182.776 82.399 186.168 82.399 191.096ZM85.919 191.096C85.919 187.928 87.807 185.944 90.591 185.944C93.375 185.944 95.263 187.928 95.263 191.096C95.263 194.264 93.375 196.28 90.591 196.28C87.807 196.28 85.919 194.264 85.919 191.096ZM116.837 199V183.224H113.317V191.416C113.317 194.456 111.717 196.184 108.965 196.184C106.533 196.184 105.157 194.808 105.157 192.344V183.224H101.637V192.664C101.637 196.888 104.389 199.256 107.781 199.256C110.789 199.256 112.261 197.848 112.933 196.376H113.381V199H116.837ZM128.609 183.224L131.937 199H137.057L139.745 186.52H140.161L142.849 199H148.001L151.297 183.224H147.713L145.537 195.704H145.121L142.465 183.224H137.473L134.785 195.704H134.369L132.193 183.224H128.609ZM153.285 187.096L156.229 188.76C157.093 187 158.501 185.848 160.837 185.848C163.205 185.848 164.517 187.064 164.517 188.888V189.304L158.597 189.912C155.045 190.264 152.965 191.896 152.965 194.584C152.965 197.528 155.301 199.448 158.853 199.448C162.149 199.448 163.525 197.88 164.101 196.632H164.549V199H168.005V188.984C168.005 185.24 165.253 182.776 160.965 182.776C157.125 182.776 154.789 184.696 153.285 187.096ZM156.613 194.424C156.613 193.144 157.701 192.6 159.365 192.44L164.517 191.896V192.152C164.517 194.584 162.853 196.536 159.589 196.536C157.669 196.536 156.613 195.704 156.613 194.424ZM171.86 183.224V199H175.38V190.808C175.38 187.768 176.98 186.04 179.732 186.04C182.164 186.04 183.54 187.384 183.54 189.848V199H187.06V189.528C187.06 185.304 184.34 182.968 180.916 182.968C177.908 182.968 176.468 184.344 175.764 185.816H175.316V183.224H171.86ZM188.851 183.224V186.264H193.043V196.12C193.043 197.816 194.259 199 195.923 199H200.147V195.96H197.427C196.851 195.96 196.562 195.672 196.562 195.032V186.264H201.043V183.224H196.562V178.04H193.043V183.224H188.851ZM211.351 183.224V186.264H215.543V196.12C215.543 197.816 216.759 199 218.423 199H222.647V195.96H219.927C219.351 195.96 219.062 195.672 219.062 195.032V186.264H223.543V183.224H219.062V178.04H215.543V183.224H211.351ZM225.305 191.096C225.305 196.024 228.857 199.448 233.497 199.448C238.137 199.448 241.689 196.024 241.689 191.096C241.689 186.168 238.137 182.776 233.497 182.776C228.857 182.776 225.305 186.168 225.305 191.096ZM228.825 191.096C228.825 187.928 230.713 185.944 233.497 185.944C236.281 185.944 238.169 187.928 238.169 191.096C238.169 194.264 236.281 196.28 233.497 196.28C230.713 196.28 228.825 194.264 228.825 191.096ZM253.444 187.544C253.444 190.52 255.62 191.8 259.62 192.312L260.548 192.44C262.244 192.664 264.068 192.856 264.068 194.264C264.068 195.64 262.532 196.504 260.58 196.504C258.276 196.504 256.196 195.224 255.204 193.016L252.26 194.744C253.604 197.016 256.068 199.448 260.484 199.448C264.612 199.448 267.524 197.272 267.524 194.168C267.524 191.064 265.188 189.976 260.868 189.432L259.94 189.304C258.244 189.08 256.9 188.856 256.9 187.512C256.9 186.36 257.956 185.656 259.588 185.656C261.572 185.656 263.332 186.712 264.804 188.568L267.364 186.616C265.06 184.12 262.852 182.776 259.62 182.776C256.196 182.776 253.444 184.6 253.444 187.544ZM269.43 190.968C269.43 195.8 272.822 199.448 277.622 199.448C281.622 199.448 283.542 197.272 284.694 195.48L281.782 193.816C281.078 195.192 279.83 196.408 277.558 196.408C274.998 196.408 273.238 194.712 273.078 192.248H285.014V190.712C285.014 186.04 281.942 182.744 277.334 182.744C272.726 182.744 269.43 186.264 269.43 190.968ZM273.078 189.624C273.366 187.256 274.806 185.784 277.302 185.784C279.734 185.784 281.238 187.256 281.398 189.624H273.078ZM287.922 183.224V199H291.442V190.808C291.442 187.768 293.042 186.04 295.794 186.04C298.226 186.04 299.602 187.384 299.602 189.848V199H303.122V189.528C303.122 185.304 300.402 182.968 296.978 182.968C293.97 182.968 292.53 184.344 291.826 185.816H291.378V183.224H287.922ZM322.41 176.6H318.89V185.56H318.506C317.674 184.184 316.234 182.776 313.29 182.776C309.258 182.776 305.962 186.232 305.962 191.096C305.962 195.96 309.258 199.448 313.29 199.448C316.234 199.448 317.674 198.04 318.506 196.632H318.954V199H322.41V176.6ZM314.218 185.912C317.002 185.912 318.89 187.864 318.89 191.096C318.89 194.328 317.002 196.312 314.218 196.312C311.498 196.312 309.482 194.424 309.482 191.096C309.482 187.768 311.498 185.912 314.218 185.912ZM350.587 199V183.224H347.067V191.416C347.067 194.456 345.467 196.184 342.715 196.184C340.283 196.184 338.907 194.808 338.907 192.344V183.224H335.387V192.664C335.387 196.888 338.139 199.256 341.531 199.256C344.539 199.256 346.011 197.848 346.683 196.376H347.131V199H350.587ZM354.194 187.544C354.194 190.52 356.37 191.8 360.37 192.312L361.298 192.44C362.994 192.664 364.818 192.856 364.818 194.264C364.818 195.64 363.282 196.504 361.33 196.504C359.026 196.504 356.946 195.224 355.954 193.016L353.01 194.744C354.354 197.016 356.818 199.448 361.234 199.448C365.362 199.448 368.274 197.272 368.274 194.168C368.274 191.064 365.938 189.976 361.618 189.432L360.69 189.304C358.994 189.08 357.65 188.856 357.65 187.512C357.65 186.36 358.706 185.656 360.338 185.656C362.322 185.656 364.082 186.712 365.554 188.568L368.114 186.616C365.81 184.12 363.602 182.776 360.37 182.776C356.946 182.776 354.194 184.6 354.194 187.544ZM379.785 187.096L382.729 188.76C383.593 187 385.001 185.848 387.337 185.848C389.705 185.848 391.017 187.064 391.017 188.888V189.304L385.097 189.912C381.545 190.264 379.465 191.896 379.465 194.584C379.465 197.528 381.801 199.448 385.353 199.448C388.649 199.448 390.025 197.88 390.601 196.632H391.049V199H394.505V188.984C394.505 185.24 391.753 182.776 387.465 182.776C383.625 182.776 381.289 184.696 379.785 187.096ZM383.113 194.424C383.113 193.144 384.201 192.6 385.865 192.44L391.017 191.896V192.152C391.017 194.584 389.353 196.536 386.089 196.536C384.169 196.536 383.113 195.704 383.113 194.424ZM66.016 217.224V233H69.536V223.272C69.536 221.096 70.944 220.008 72.768 220.008C74.464 220.008 75.616 220.936 75.616 222.568V233H79.136V223.272C79.136 221.096 80.48 220.008 82.272 220.008C83.968 220.008 85.184 220.936 85.184 222.568V233H88.704V222.312C88.704 219.048 86.272 216.968 83.424 216.968C80.896 216.968 79.584 218.216 78.912 219.624H78.464C77.728 218.088 76.32 216.968 74.176 216.968C72.032 216.968 70.656 217.992 69.92 219.432H69.472V217.224H66.016ZM91.5553 224.968C91.5553 229.8 94.9473 233.448 99.7473 233.448C103.747 233.448 105.667 231.272 106.819 229.48L103.907 227.816C103.203 229.192 101.955 230.408 99.6833 230.408C97.1233 230.408 95.3633 228.712 95.2033 226.248H107.139V224.712C107.139 220.04 104.067 216.744 99.4593 216.744C94.8513 216.744 91.5553 220.264 91.5553 224.968ZM95.2033 223.624C95.4913 221.256 96.9313 219.784 99.4273 219.784C101.859 219.784 103.363 221.256 103.523 223.624H95.2033ZM109.569 221.544C109.569 224.52 111.745 225.8 115.745 226.312L116.673 226.44C118.369 226.664 120.193 226.856 120.193 228.264C120.193 229.64 118.657 230.504 116.705 230.504C114.401 230.504 112.321 229.224 111.329 227.016L108.385 228.744C109.729 231.016 112.193 233.448 116.609 233.448C120.737 233.448 123.649 231.272 123.649 228.168C123.649 225.064 121.313 223.976 116.993 223.432L116.065 223.304C114.369 223.08 113.025 222.856 113.025 221.512C113.025 220.36 114.081 219.656 115.713 219.656C117.697 219.656 119.457 220.712 120.929 222.568L123.489 220.616C121.185 218.12 118.977 216.776 115.745 216.776C112.321 216.776 109.569 218.6 109.569 221.544ZM125.881 221.544C125.881 224.52 128.057 225.8 132.057 226.312L132.985 226.44C134.681 226.664 136.505 226.856 136.505 228.264C136.505 229.64 134.969 230.504 133.017 230.504C130.713 230.504 128.633 229.224 127.641 227.016L124.697 228.744C126.041 231.016 128.505 233.448 132.921 233.448C137.049 233.448 139.961 231.272 139.961 228.168C139.961 225.064 137.625 223.976 133.305 223.432L132.377 223.304C130.681 223.08 129.337 222.856 129.337 221.512C129.337 220.36 130.393 219.656 132.025 219.656C134.009 219.656 135.769 220.712 137.241 222.568L139.801 220.616C137.497 218.12 135.289 216.776 132.057 216.776C128.633 216.776 125.881 218.6 125.881 221.544ZM154.86 217.224V219.56H154.412C153.58 218.184 152.14 216.776 149.196 216.776C145.164 216.776 141.868 220.136 141.868 224.872C141.868 229.64 145.164 233 149.196 233C152.14 233 153.58 231.592 154.412 230.184H154.796V232.328C154.796 235.368 152.844 236.776 150.156 236.776C147.596 236.776 145.996 235.272 145.132 233.608L142.092 235.432C143.66 237.832 146.092 239.848 150.38 239.848C155.244 239.848 158.316 236.776 158.316 232.488V217.224H154.86ZM150.124 229.864C147.404 229.864 145.388 228.104 145.388 224.872C145.388 221.672 147.404 219.912 150.124 219.912C152.908 219.912 154.796 221.768 154.796 224.872C154.796 228.008 152.908 229.864 150.124 229.864ZM161.368 224.968C161.368 229.8 164.76 233.448 169.56 233.448C173.56 233.448 175.48 231.272 176.632 229.48L173.72 227.816C173.016 229.192 171.768 230.408 169.496 230.408C166.936 230.408 165.176 228.712 165.016 226.248H176.952V224.712C176.952 220.04 173.88 216.744 169.272 216.744C164.664 216.744 161.368 220.264 161.368 224.968ZM165.016 223.624C165.304 221.256 166.744 219.784 169.24 219.784C171.672 219.784 173.176 221.256 173.336 223.624H165.016ZM179.06 217.096V218.216H182.772V217.288C182.772 214.888 184.628 213.608 187.124 213.608C189.556 213.608 191.156 214.888 191.156 216.712C191.156 218.44 190.26 219.24 188.02 220.264L187.38 220.552C185.492 221.384 184.788 222.632 184.788 224.808V226.28H188.5V225.032C188.5 224.072 188.756 223.688 189.524 223.336L190.164 223.048C192.852 221.832 194.868 220.232 194.868 216.744V216.552C194.868 212.872 191.668 210.152 187.124 210.152C182.516 210.152 179.06 212.808 179.06 217.096ZM183.892 230.664C183.892 232.264 185.108 233.448 186.644 233.448C188.212 233.448 189.428 232.264 189.428 230.664C189.428 229.064 188.212 227.912 186.644 227.912C185.108 227.912 183.892 229.064 183.892 230.664Z" fill="white"/>
<g clip-path="url(#clip1)">
<path d="M157.182 338.331L142.172 311H130.045C122.669 311 118.405 318.34 122.739 323.576L132.519 335.39C141.705 346.487 146.652 359.849 146.652 373.564V382.821L164.944 392.017V369.929C164.944 358.577 162.227 347.516 157.182 338.331Z" fill="url(#paint0_linear)"/>
<path d="M271.954 311H259.827L244.817 338.331C239.773 347.516 237.056 358.577 237.056 369.929V392.017L255.347 382.821V373.564C255.347 359.849 260.294 346.487 269.48 335.39L279.26 323.576C283.594 318.34 279.331 311 271.954 311V311Z" fill="url(#paint1_linear)"/>
<path d="M190.067 369.929C190.067 358.577 189.243 347.516 187.714 338.331L183.163 311H142.172L157.182 338.331C162.226 347.516 164.943 358.577 164.943 369.929V392.017L190.067 404.65V369.929Z" fill="url(#paint2_linear)"/>
<path d="M244.818 338.331L259.828 311H218.837L214.286 338.331C212.756 347.516 211.933 358.577 211.933 369.929V404.65L237.056 392.017V369.929C237.056 358.577 239.773 347.516 244.818 338.331Z" fill="url(#paint3_linear)"/>
<path d="M211.933 369.929C211.933 358.577 212.756 347.516 214.286 338.331L218.837 311H183.163L187.714 338.331C189.244 347.516 190.068 358.577 190.068 369.929V404.65L201 410.147L211.933 404.65V369.929Z" fill="url(#paint4_linear)"/>
<path d="M146.653 373.563V382.82L164.944 392.017V369.929C164.944 365.831 164.585 361.772 163.895 357.825H144.443C145.9 362.943 146.653 368.226 146.653 373.563Z" fill="url(#paint5_linear)"/>
<path d="M164.945 369.929V392.017L190.068 404.65V369.929C190.068 365.831 189.96 361.772 189.75 357.825H163.896C164.585 361.772 164.945 365.831 164.945 369.929Z" fill="url(#paint6_linear)"/>
<path d="M189.75 357.825C189.959 361.772 190.068 365.831 190.068 369.929V404.65L201.001 410.146L211.933 404.65V369.929C211.933 365.831 212.042 361.772 212.251 357.825H189.75Z" fill="url(#paint7_linear)"/>
<path d="M212.251 357.825C212.041 361.772 211.933 365.831 211.933 369.929V404.65L237.056 392.017V369.929C237.056 365.831 237.416 361.772 238.106 357.825H212.251Z" fill="url(#paint8_linear)"/>
<path d="M238.105 357.825C237.415 361.772 237.056 365.831 237.056 369.929V392.017L255.347 382.82V373.564C255.347 368.226 256.099 362.943 257.556 357.825H238.105Z" fill="url(#paint9_linear)"/>
<path d="M137.577 422.429V411.743C137.577 405.096 142.853 399.707 149.361 399.707C155.869 399.707 161.145 405.095 161.145 411.743V422.429C161.145 429.077 155.869 434.466 149.361 434.466C142.853 434.466 137.577 429.077 137.577 422.429Z" fill="url(#paint10_linear)"/>
<path d="M242.262 422.429V411.743C242.262 405.096 247.537 399.707 254.046 399.707C260.554 399.707 265.829 405.095 265.829 411.743V422.429C265.829 429.077 260.554 434.466 254.046 434.466C247.538 434.466 242.262 429.077 242.262 422.429Z" fill="url(#paint11_linear)"/>
<path d="M256.36 396.835V418.608C256.36 423.342 255.782 427.94 254.699 432.331C248.711 456.528 227.255 474.433 201.705 474.433C176.154 474.433 154.698 456.528 148.714 432.332C147.627 427.94 147.05 423.343 147.05 418.609V396.836C147.05 388.559 148.813 382.947 151.978 375.885H251.432C254.596 382.947 256.36 388.558 256.36 396.835Z" fill="url(#paint12_linear)"/>
<path d="M256.359 396.836V418.609C256.359 423.343 255.781 427.94 254.691 432.332C249.855 451.885 234.91 467.332 215.87 472.537L176.509 432.332L147.049 402.24V396.836C147.049 388.559 148.812 382.947 151.977 375.885H251.431C254.596 382.947 256.359 388.559 256.359 396.836Z" fill="url(#paint13_linear)"/>
<path d="M260.522 373.642C263.883 373.642 266.286 377.013 265.199 380.261C260.073 395.573 245.865 406.583 229.144 406.583H195.794C188.668 406.583 182.004 404.582 176.3 401.105C174.188 402.82 171.799 404.188 169.208 405.131C166.584 406.082 163.757 406.596 160.811 406.583C147.131 406.52 136.17 394.945 136.17 380.972V378.674C136.17 375.895 138.375 373.642 141.096 373.642H260.522V373.642Z" fill="url(#paint14_linear)"/>
<path d="M176.3 401.105C174.188 402.819 171.799 404.188 169.208 405.13C166.584 406.081 163.757 406.596 160.811 406.582C147.131 406.52 136.17 394.945 136.17 380.971V378.674C136.17 375.895 138.375 373.642 141.096 373.642H158.145C159.909 385.319 166.755 395.286 176.3 401.105Z" fill="url(#paint15_linear)"/>
<path d="M185.4 428.222C185.4 432.663 181.875 436.264 177.526 436.264C173.178 436.264 169.652 432.663 169.652 428.222C169.652 423.78 173.178 420.179 177.526 420.179C181.875 420.179 185.4 423.779 185.4 428.222Z" fill="url(#paint16_linear)"/>
<path d="M181.048 421.027C181.579 422.109 181.878 423.331 181.878 424.625C181.878 429.066 178.353 432.667 174.005 432.667C172.738 432.667 171.542 432.362 170.482 431.819C171.775 434.455 174.444 436.264 177.526 436.264C181.874 436.264 185.4 432.663 185.4 428.221C185.4 425.073 183.628 422.347 181.048 421.027Z" fill="url(#paint17_linear)"/>
<path d="M233.753 428.222C233.753 432.663 230.227 436.264 225.879 436.264C221.53 436.264 218.005 432.663 218.005 428.222C218.005 423.78 221.53 420.179 225.879 420.179C230.228 420.179 233.753 423.779 233.753 428.222Z" fill="url(#paint18_linear)"/>
<path d="M229.401 421.027C229.932 422.109 230.231 423.331 230.231 424.625C230.231 429.066 226.706 432.667 222.357 432.667C221.091 432.667 219.895 432.362 218.835 431.819C220.128 434.455 222.796 436.264 225.878 436.264C230.227 436.264 233.752 432.663 233.752 428.221C233.752 425.073 231.981 422.347 229.401 421.027Z" fill="url(#paint19_linear)"/>
<path d="M212.547 451.767C205.674 448.489 197.733 448.489 190.86 451.767C189.082 452.614 188.287 454.76 189.087 456.589C190.918 460.778 194.882 467.363 201.704 467.363C208.525 467.363 212.489 460.778 214.32 456.589C215.12 454.76 214.325 452.614 212.547 451.767Z" fill="url(#paint20_linear)"/>
<path d="M201.704 444.759C205.605 444.759 208.767 441.977 208.767 438.546C208.767 435.115 205.605 432.334 201.704 432.334C197.803 432.334 194.641 435.115 194.641 438.546C194.641 441.977 197.803 444.759 201.704 444.759Z" fill="url(#paint21_linear)"/>
</g>
<path d="M573.52 68V82H575.16V69.6H575.4L580.6 82H583.58V68H581.94V80.42H581.7L576.48 68H573.52ZM586.225 74.9L587.565 75.52C588.125 74.24 589.145 73.34 590.905 73.34C592.665 73.34 593.665 74.28 593.665 75.76V76.14L589.805 76.5C587.545 76.72 586.085 77.62 586.085 79.4C586.085 81.16 587.605 82.28 589.725 82.28C591.825 82.28 592.925 81.3 593.405 80.36H593.685V82H595.185V75.84C595.185 73.5 593.585 71.96 590.945 71.96C588.505 71.96 586.945 73.38 586.225 74.9ZM587.625 79.36C587.625 78.26 588.645 77.84 590.005 77.72L593.665 77.38V77.58C593.665 79.6 592.285 80.98 589.925 80.98C588.565 80.98 587.625 80.42 587.625 79.36ZM598.07 72.24V82H599.59V75.96C599.59 74.28 600.69 73.4 602.07 73.4C603.39 73.4 604.23 74.18 604.23 75.42V82H605.77V75.96C605.77 74.28 606.81 73.4 608.17 73.4C609.51 73.4 610.39 74.18 610.39 75.42V82H611.93V75.3C611.93 73.34 610.45 72.08 608.61 72.08C607.09 72.08 606.13 72.8 605.65 73.8H605.37C604.93 72.82 604.05 72.08 602.59 72.08C601.25 72.08 600.35 72.66 599.83 73.56H599.55V72.24H598.07ZM614.169 77.04C614.169 80 616.189 82.28 619.229 82.28C621.669 82.28 622.869 80.94 623.569 79.68L622.229 78.98C621.689 80.1 620.809 80.92 619.209 80.92C617.249 80.92 615.889 79.66 615.769 77.62H623.749V76.8C623.749 73.92 621.829 71.94 619.029 71.94C616.209 71.94 614.169 74.18 614.169 77.04ZM615.769 76.36C615.949 74.44 617.189 73.3 619.029 73.3C620.889 73.3 622.109 74.42 622.149 76.36H615.769Z" fill="white"/>
<rect x="572" y="96" width="547" height="72" rx="4" fill="#F4F5F7"/>
<path d="M573.52 188V202H582.4V200.5H575.16V195.72H581.76V194.24H575.16V189.5H582.32V188H573.52ZM584.77 192.24V202H586.29V195.96C586.29 194.28 587.39 193.4 588.77 193.4C590.09 193.4 590.93 194.18 590.93 195.42V202H592.47V195.96C592.47 194.28 593.51 193.4 594.87 193.4C596.21 193.4 597.09 194.18 597.09 195.42V202H598.63V195.3C598.63 193.34 597.15 192.08 595.31 192.08C593.79 192.08 592.83 192.8 592.35 193.8H592.07C591.63 192.82 590.75 192.08 589.29 192.08C587.95 192.08 587.05 192.66 586.53 193.56H586.25V192.24H584.77ZM601.128 194.9L602.468 195.52C603.028 194.24 604.048 193.34 605.808 193.34C607.568 193.34 608.568 194.28 608.568 195.76V196.14L604.708 196.5C602.448 196.72 600.988 197.62 600.988 199.4C600.988 201.16 602.508 202.28 604.628 202.28C606.728 202.28 607.828 201.3 608.308 200.36H608.588V202H610.088V195.84C610.088 193.5 608.488 191.96 605.848 191.96C603.408 191.96 601.848 193.38 601.128 194.9ZM602.528 199.36C602.528 198.26 603.548 197.84 604.908 197.72L608.568 197.38V197.58C608.568 199.6 607.188 200.98 604.828 200.98C603.468 200.98 602.528 200.42 602.528 199.36ZM612.413 189.2C612.413 189.94 612.993 190.5 613.733 190.5C614.473 190.5 615.053 189.94 615.053 189.2C615.053 188.46 614.473 187.9 613.733 187.9C612.993 187.9 612.413 188.46 612.413 189.2ZM614.493 192.24H612.973V202H614.493V192.24ZM619.004 188H617.484V202H619.004V188Z" fill="white"/>
<rect x="572" y="216" width="547" height="72" rx="4" fill="#F4F5F7"/>
<path d="M573.52 308V322H575.16V309.8H575.4L579.46 322H581.92L585.98 309.8H586.22V322H587.86V308H584.88L580.8 320.24H580.56L576.5 308H573.52ZM590.243 317.04C590.243 320 592.263 322.28 595.303 322.28C597.743 322.28 598.943 320.94 599.643 319.68L598.303 318.98C597.763 320.1 596.883 320.92 595.283 320.92C593.323 320.92 591.963 319.66 591.843 317.62H599.823V316.8C599.823 313.92 597.903 311.94 595.103 311.94C592.283 311.94 590.243 314.18 590.243 317.04ZM591.843 316.36C592.023 314.44 593.263 313.3 595.103 313.3C596.963 313.3 598.183 314.42 598.223 316.36H591.843ZM601.777 314.78C601.777 316.62 603.237 317.3 605.377 317.6L606.297 317.74C607.577 317.92 608.797 318.1 608.797 319.18C608.797 320.24 607.717 320.94 606.117 320.94C604.357 320.94 603.037 320 602.397 318.38L601.017 319.08C601.737 320.62 603.317 322.28 606.077 322.28C608.617 322.28 610.337 321.02 610.337 319.14C610.337 317.26 608.737 316.68 606.477 316.34L605.557 316.2C604.357 316.02 603.297 315.84 603.297 314.76C603.297 313.78 604.217 313.26 605.477 313.26C606.797 313.26 608.077 313.88 609.117 315.34L610.297 314.54C608.817 312.74 607.417 311.96 605.457 311.96C603.457 311.96 601.777 312.98 601.777 314.78ZM612.167 314.78C612.167 316.62 613.627 317.3 615.767 317.6L616.687 317.74C617.967 317.92 619.187 318.1 619.187 319.18C619.187 320.24 618.107 320.94 616.507 320.94C614.747 320.94 613.427 320 612.787 318.38L611.407 319.08C612.127 320.62 613.707 322.28 616.467 322.28C619.007 322.28 620.727 321.02 620.727 319.14C620.727 317.26 619.127 316.68 616.867 316.34L615.947 316.2C614.747 316.02 613.687 315.84 613.687 314.76C613.687 313.78 614.607 313.26 615.867 313.26C617.187 313.26 618.467 313.88 619.507 315.34L620.687 314.54C619.207 312.74 617.807 311.96 615.847 311.96C613.847 311.96 612.167 312.98 612.167 314.78ZM622.612 314.9L623.952 315.52C624.512 314.24 625.532 313.34 627.292 313.34C629.052 313.34 630.052 314.28 630.052 315.76V316.14L626.192 316.5C623.932 316.72 622.472 317.62 622.472 319.4C622.472 321.16 623.992 322.28 626.112 322.28C628.212 322.28 629.312 321.3 629.792 320.36H630.072V322H631.572V315.84C631.572 313.5 629.972 311.96 627.332 311.96C624.892 311.96 623.332 313.38 622.612 314.9ZM624.012 319.36C624.012 318.26 625.032 317.84 626.392 317.72L630.052 317.38V317.58C630.052 319.6 628.672 320.98 626.312 320.98C624.952 320.98 624.012 320.42 624.012 319.36ZM642.277 312.24V313.92H641.997C641.437 312.94 640.457 311.96 638.437 311.96C635.837 311.96 633.817 314 633.817 317.02C633.817 320.04 635.837 322.08 638.437 322.08C640.457 322.08 641.437 321.1 641.997 320.12H642.237V321.54C642.237 323.78 640.857 324.9 638.917 324.9C637.097 324.9 635.977 323.9 635.397 322.78L633.997 323.56C634.937 325.02 636.417 326.28 639.017 326.28C641.937 326.28 643.757 324.3 643.757 321.64V312.24H642.277ZM638.797 320.68C636.777 320.68 635.357 319.34 635.357 317.02C635.357 314.7 636.777 313.34 638.797 313.34C640.857 313.34 642.237 314.76 642.237 317.02C642.237 319.28 640.857 320.68 638.797 320.68ZM646.122 317.04C646.122 320 648.142 322.28 651.182 322.28C653.622 322.28 654.822 320.94 655.522 319.68L654.182 318.98C653.642 320.1 652.762 320.92 651.162 320.92C649.202 320.92 647.842 319.66 647.722 317.62H655.702V316.8C655.702 313.92 653.782 311.94 650.982 311.94C648.162 311.94 646.122 314.18 646.122 317.04ZM647.722 316.36C647.902 314.44 649.142 313.3 650.982 313.3C652.842 313.3 654.062 314.42 654.102 316.36H647.722Z" fill="white"/>
<rect x="572" y="336" width="547" height="143" rx="4" fill="#F4F5F7"/>
<g filter="url(#filter0_dd)">
<rect x="572" y="527" width="547" height="73" rx="36.5" fill="#3B38F1"/>
<path d="M818.46 556.72C815.8 556.72 813.68 558.24 813.68 560.68C813.68 563.26 815.46 564.22 818.16 564.82L818.7 564.94C820.52 565.32 821.48 565.8 821.48 567.08C821.48 568.26 820.52 569.22 818.74 569.22C816.54 569.22 815.4 568.02 815.4 566.06V565.64H813.1V566.18C813.1 569.36 815.28 571.28 818.7 571.28C821.62 571.28 823.78 569.68 823.78 566.98C823.78 564.5 822.14 563.44 819.4 562.84L818.86 562.72C817.02 562.3 815.98 561.94 815.98 560.64C815.98 559.54 816.98 558.78 818.46 558.78C820.18 558.78 821.32 559.6 821.32 561.3V561.76H823.6V561.14C823.6 558.3 821.4 556.72 818.46 556.72ZM835.21 571V561.14H833.01V566.26C833.01 568.16 832.01 569.24 830.29 569.24C828.77 569.24 827.91 568.38 827.91 566.84V561.14H825.71V567.04C825.71 569.68 827.43 571.16 829.55 571.16C831.43 571.16 832.35 570.28 832.77 569.36H833.05V571H835.21ZM837.725 557V571H839.885V569.52H840.165C840.705 570.4 841.585 571.28 843.425 571.28C845.965 571.28 848.005 569.1 848.005 566.06C848.005 563.02 845.965 560.86 843.425 560.86C841.585 560.86 840.705 561.74 840.165 562.6H839.925V557H837.725ZM842.845 562.82C844.545 562.82 845.805 563.98 845.805 566.06C845.805 568.14 844.545 569.32 842.845 569.32C841.105 569.32 839.925 568.08 839.925 566.06C839.925 564.04 841.105 562.82 842.845 562.82ZM849.912 561.14V571H852.112V564.92C852.112 563.56 852.992 562.88 854.132 562.88C855.192 562.88 855.912 563.46 855.912 564.48V571H858.112V564.92C858.112 563.56 858.952 562.88 860.072 562.88C861.132 562.88 861.892 563.46 861.892 564.48V571H864.092V564.32C864.092 562.28 862.572 560.98 860.792 560.98C859.212 560.98 858.392 561.76 857.972 562.64H857.692C857.232 561.68 856.352 560.98 855.012 560.98C853.672 560.98 852.812 561.62 852.352 562.52H852.072V561.14H849.912ZM865.934 558.2C865.934 559.12 866.674 559.8 867.594 559.8C868.514 559.8 869.234 559.12 869.234 558.2C869.234 557.26 868.514 556.6 867.594 556.6C866.674 556.6 865.934 557.26 865.934 558.2ZM868.694 561.14H866.494V571H868.694V561.14ZM870.141 561.14V563.04H872.761V569.2C872.761 570.26 873.521 571 874.561 571H877.201V569.1H875.501C875.141 569.1 874.961 568.92 874.961 568.52V563.04H877.761V561.14H874.961V557.9H872.761V561.14H870.141Z" fill="white"/>
</g>
</g>
<defs>
<filter id="filter0_dd" x="560" y="515" width="571" height="97" filterUnits="userSpaceOnUse" color-interpolation-filters="sRGB">
<feFlood flood-opacity="0" result="BackgroundImageFix"/>
<feColorMatrix in="SourceAlpha" type="matrix" values="0 0 0 0 0 0 0 0 0 0 0 0 0 0 0 0 0 0 127 0"/>
<feOffset/>
<feGaussianBlur stdDeviation="6"/>
<feColorMatrix type="matrix" values="0 0 0 0 0.0604134 0 0 0 0 0.0469584 0 0 0 0 0.719708 0 0 0 0.08 0"/>
<feBlend mode="normal" in2="BackgroundImageFix" result="effect1_dropShadow"/>
<feColorMatrix in="SourceAlpha" type="matrix" values="0 0 0 0 0 0 0 0 0 0 0 0 0 0 0 0 0 0 127 0"/>
<feOffset/>
<feGaussianBlur stdDeviation="1"/>
<feColorMatrix type="matrix" values="0 0 0 0 0.0588235 0 0 0 0 0.0470588 0 0 0 0 0.721569 0 0 0 0.18 0"/>
<feBlend mode="normal" in2="effect1_dropShadow" result="effect2_dropShadow"/>
<feBlend mode="normal" in="SourceGraphic" in2="effect2_dropShadow" result="shape"/>
</filter>
<linearGradient id="paint0_linear" x1="142.972" y1="342.673" x2="142.972" y2="372.308" gradientUnits="userSpaceOnUse">
<stop stop-color="#FFCE47"/>
<stop offset="1" stop-color="#FF9356"/>
</linearGradient>
<linearGradient id="paint1_linear" x1="259.027" y1="336.748" x2="259.027" y2="354.293" gradientUnits="userSpaceOnUse">
<stop stop-color="#FF755C"/>
<stop offset="1" stop-color="#FF4181"/>
</linearGradient>
<linearGradient id="paint2_linear" x1="166.119" y1="339.027" x2="166.119" y2="378.913" gradientUnits="userSpaceOnUse">
<stop stop-color="#E4E08E"/>
<stop offset="1" stop-color="#6FA953"/>
</linearGradient>
<linearGradient id="paint3_linear" x1="235.881" y1="349.053" x2="235.881" y2="385.443" gradientUnits="userSpaceOnUse">
<stop stop-color="#FF4181"/>
<stop offset="1" stop-color="#843561"/>
</linearGradient>
<linearGradient id="paint4_linear" x1="201" y1="331.735" x2="201" y2="371.611" gradientUnits="userSpaceOnUse">
<stop stop-color="#7ACBFF"/>
<stop offset="1" stop-color="#45A2E0"/>
</linearGradient>
<linearGradient id="paint5_linear" x1="154.694" y1="368.421" x2="154.694" y2="383.304" gradientUnits="userSpaceOnUse">
<stop stop-color="#FF9356" stop-opacity="0"/>
<stop offset="1" stop-color="#FF755C"/>
</linearGradient>
<linearGradient id="paint6_linear" x1="176.982" y1="366.541" x2="176.982" y2="396.452" gradientUnits="userSpaceOnUse">
<stop stop-color="#43765A" stop-opacity="0"/>
<stop offset="1" stop-color="#43765A"/>
</linearGradient>
<linearGradient id="paint7_linear" x1="201.001" y1="367.737" x2="201.001" y2="410.487" gradientUnits="userSpaceOnUse">
<stop stop-color="#174461" stop-opacity="0"/>
<stop offset="1" stop-color="#174461"/>
</linearGradient>
<linearGradient id="paint8_linear" x1="225.019" y1="374.754" x2="225.019" y2="389.442" gradientUnits="userSpaceOnUse">
<stop stop-color="#843561" stop-opacity="0"/>
<stop offset="1" stop-color="#3A2F4D"/>
</linearGradient>
<linearGradient id="paint9_linear" x1="247.306" y1="366.882" x2="247.306" y2="392.19" gradientUnits="userSpaceOnUse">
<stop stop-color="#843561" stop-opacity="0"/>
<stop offset="1" stop-color="#3A2F4D"/>
</linearGradient>
<linearGradient id="paint10_linear" x1="145.859" y1="409.065" x2="159.314" y2="438.606" gradientUnits="userSpaceOnUse">
<stop stop-color="#FFDECF"/>
<stop offset="1" stop-color="#FAA68E"/>
</linearGradient>
<linearGradient id="paint11_linear" x1="250.544" y1="409.065" x2="263.999" y2="438.606" gradientUnits="userSpaceOnUse">
<stop stop-color="#FFDECF"/>
<stop offset="1" stop-color="#FAA68E"/>
</linearGradient>
<linearGradient id="paint12_linear" x1="198.424" y1="407.975" x2="253.002" y2="461.406" gradientUnits="userSpaceOnUse">
<stop stop-color="#FFDECF"/>
<stop offset="1" stop-color="#FAA68E"/>
</linearGradient>
<linearGradient id="paint13_linear" x1="204.083" y1="425.231" x2="199.664" y2="377.42" gradientUnits="userSpaceOnUse">
<stop stop-color="#FF9356" stop-opacity="0"/>
<stop offset="1" stop-color="#FF4181"/>
</linearGradient>
<linearGradient id="paint14_linear" x1="197.569" y1="372.708" x2="217.79" y2="426.276" gradientUnits="userSpaceOnUse">
<stop stop-color="#5A7587"/>
<stop offset="1" stop-color="#092A40"/>
</linearGradient>
<linearGradient id="paint15_linear" x1="157.451" y1="392.124" x2="183.829" y2="413.727" gradientUnits="userSpaceOnUse">
<stop stop-color="#092A40" stop-opacity="0"/>
<stop offset="1" stop-color="#092A40"/>
</linearGradient>
<linearGradient id="paint16_linear" x1="174.58" y1="425.212" x2="184.994" y2="435.408" gradientUnits="userSpaceOnUse">
<stop stop-color="#5A7587"/>
<stop offset="1" stop-color="#092A40"/>
</linearGradient>
<linearGradient id="paint17_linear" x1="177.799" y1="431.304" x2="188.983" y2="410.941" gradientUnits="userSpaceOnUse">
<stop stop-color="#092A40" stop-opacity="0"/>
<stop offset="1" stop-color="#092A40"/>
</linearGradient>
<linearGradient id="paint18_linear" x1="222.933" y1="425.212" x2="233.347" y2="435.408" gradientUnits="userSpaceOnUse">
<stop stop-color="#5A7587"/>
<stop offset="1" stop-color="#092A40"/>
</linearGradient>
<linearGradient id="paint19_linear" x1="226.152" y1="431.304" x2="237.336" y2="410.941" gradientUnits="userSpaceOnUse">
<stop stop-color="#092A40" stop-opacity="0"/>
<stop offset="1" stop-color="#092A40"/>
</linearGradient>
<linearGradient id="paint20_linear" x1="199.643" y1="451.683" x2="207.984" y2="465.564" gradientUnits="userSpaceOnUse">
<stop stop-color="#FF755C"/>
<stop offset="1" stop-color="#FF4181"/>
</linearGradient>
<linearGradient id="paint21_linear" x1="201.704" y1="441.063" x2="201.704" y2="421.335" gradientUnits="userSpaceOnUse">
<stop stop-color="#FF9356" stop-opacity="0"/>
<stop offset="1" stop-color="#FF4181"/>
</linearGradient>
<clipPath id="clip0">
<rect width="1184" height="664" rx="16" fill="white"/>
</clipPath>
<clipPath id="clip1">
<rect width="160" height="163.433" fill="white" transform="translate(121 311)"/>
</clipPath>
</defs>
</svg>
